# xmcd CD database file
#
# Track frame offsets:
#	150
#	24850
#	51976
#	78089
#	100157
#	122084
#	141634
#	153700
#	170236
#	183398
#	207280
#	223321
#	237108
#
# Disc length: 3488 seconds
#
# Revision: 0
# Processed by: cddbd v1.5.1PL0 Copyright (c) Steve Scherf et al.
# Submitted via: CDex 1.50Beta7
#
DISCID=bd0d9e0d
DTITLE=UN - Knew But Did Not Know
DYEAR=2004
DGENRE=Rock
TTITLE0=Theme
TTITLE1=Cry My Heart
TTITLE2=Call Me
TTITLE3=Dust In My Head
TTITLE4=I'm Not Like You
TTITLE5=Things
TTITLE6=Blue Turn
TTITLE7=Make You Happy
TTITLE8=None Knows
TTITLE9=Back Home
TTITLE10=You Used To Cold To Me
TTITLE11=Care For You
TTITLE12=Theme
EXTD=YEAR: 2004
EXTT0=
EXTT1=
EXTT2=
EXTT3=
EXTT4=
EXTT5=
EXTT6=
EXTT7=
EXTT8=
EXTT9=
EXTT10=
EXTT11=
EXTT12=
PLAYORDER=
